<svg width="28" height="32" viewBox="0 0 28 32" fill="none" xmlns="http://www.w3.org/2000/svg">
<path opacity="0.4" d="M0 12H28V29C28 30.6562 26.6562 32 25 32H3C1.34375 32 0 30.6562 0 29V12ZM4 17V19C4 19.55 4.45 20 5 20H7C7.55 20 8 19.55 8 19V17C8 16.45 7.55 16 7 16H5C4.45 16 4 16.45 4 17ZM4 25V27C4 27.55 4.45 28 5 28H7C7.55 28 8 27.55 8 27V25C8 24.45 7.55 24 7 24H5C4.45 24 4 24.45 4 25ZM12 17V19C12 19.55 12.45 20 13 20H15C15.55 20 16 19.55 16 19V17C16 16.45 15.55 16 15 16H13C12.45 16 12 16.45 12 17ZM12 25V27C12 27.55 12.45 28 13 28H15C15.55 28 16 27.55 16 27V25C16 24.45 15.55 24 15 24H13C12.45 24 12 24.45 12 25ZM20 17V19C20 19.55 20.45 20 21 20H23C23.55 20 24 19.55 24 19V17C24 16.45 23.55 16 23 16H21C20.45 16 20 16.45 20 17ZM20 25V27C20 27.55 20.45 28 21 28H23C23.55 28 24 27.55 24 27V25C24 24.45 23.55 24 23 24H21C20.45 24 20 24.45 20 25Z" fill="#0E0036"/>
<path d="M10 2C10 0.89375 9.10625 0 8 0C6.89375 0 6 0.89375 6 2V4H3C1.34375 4 0 5.34375 0 7V12H28V7C28 5.34375 26.6562 4 25 4H22V2C22 0.89375 21.1063 0 20 0C18.8937 0 18 0.89375 18 2V4H10V2Z" fill="#0E0036"/>
</svg>
