<svg width="24" height="32" viewBox="0 0 24 32" fill="none" xmlns="http://www.w3.org/2000/svg">
<path opacity="0.4" d="M0 4C0 1.79375 1.79375 0 4 0H14V8C14 9.10625 14.8938 10 16 10H24V28C24 30.2062 22.2062 32 20 32H4C1.79375 32 0 30.2062 0 28V4ZM6 19V21C6 21.55 6.45 22 7 22H10V25C10 25.55 10.45 26 11 26H13C13.55 26 14 25.55 14 25V22H17C17.55 22 18 21.55 18 21V19C18 18.45 17.55 18 17 18H14V15C14 14.45 13.55 14 13 14H11C10.45 14 10 14.45 10 15V18H7C6.45 18 6 18.45 6 19Z" fill="white"/>
<path d="M24 10H16C14.8938 10 14 9.10625 14 8V0L24 10ZM10 15C10 14.45 10.45 14 11 14H13C13.55 14 14 14.45 14 15V18H17C17.55 18 18 18.45 18 19V21C18 21.55 17.55 22 17 22H14V25C14 25.55 13.55 26 13 26H11C10.45 26 10 25.55 10 25V22H7C6.45 22 6 21.55 6 21V19C6 18.45 6.45 18 7 18H10V15Z" fill="white"/>
</svg>
