<svg width="57" height="50" viewBox="0 0 57 50" fill="none" xmlns="http://www.w3.org/2000/svg">
<path opacity="0.4" d="M6.62427 26.4148C13.9195 20.0376 21.2051 13.6505 28.5003 7.27328L50.3862 26.4246L50.4252 43.7399C50.435 47.1971 47.6321 50 44.1749 50H12.8843C9.43691 50 6.63403 47.2069 6.63403 43.7497L6.62427 26.4148ZM19.1249 29.6865V32.8116C19.1249 33.6711 19.828 34.3742 20.6875 34.3742H25.3752V39.0619C25.3752 39.9214 26.0783 40.6245 26.9378 40.6245H30.0629C30.9223 40.6245 31.6255 39.9214 31.6255 39.0619V34.3742H36.3132C37.1726 34.3742 37.8758 33.6711 37.8758 32.8116V29.6865C37.8758 28.8271 37.1726 28.1239 36.3132 28.1239H31.6255V23.4362C31.6255 22.5768 30.9223 21.8736 30.0629 21.8736H26.9378C26.0783 21.8736 25.3752 22.5768 25.3752 23.4362V28.1239H20.6875C19.828 28.1239 19.1249 28.8271 19.1249 29.6865Z" fill="white"/>
<path d="M30.561 0.769081C29.3793 -0.25636 27.6214 -0.25636 26.4397 0.769081L1.43848 22.6452C0.139592 23.778 0.0126331 25.7605 1.1455 27.0594C2.27837 28.3583 4.26089 28.4853 5.55978 27.3524L28.5004 7.2733L51.4409 27.3524C52.7398 28.4853 54.7126 28.3583 55.8552 27.0594C56.9978 25.7605 56.8611 23.7878 55.5622 22.6452L30.561 0.769081ZM25.3752 23.4362V28.1239H20.6875C19.8281 28.1239 19.1249 28.8271 19.1249 29.6865V32.8117C19.1249 33.6711 19.8281 34.3742 20.6875 34.3742H25.3752V39.062C25.3752 39.9214 26.0784 40.6245 26.9378 40.6245H30.0629C30.9223 40.6245 31.6255 39.9214 31.6255 39.062V34.3742H36.3132C37.1727 34.3742 37.8758 33.6711 37.8758 32.8117V29.6865C37.8758 28.8271 37.1727 28.1239 36.3132 28.1239H31.6255V23.4362C31.6255 22.5768 30.9223 21.8736 30.0629 21.8736H26.9378C26.0784 21.8736 25.3752 22.5768 25.3752 23.4362Z" fill="white"/>
</svg>
