<svg width="44" height="50" viewBox="0 0 44 50" fill="none" xmlns="http://www.w3.org/2000/svg">
<path opacity="0.4" d="M9.375 12.5C9.375 19.4043 14.9707 25 21.875 25C28.7793 25 34.375 19.4043 34.375 12.5C34.375 11.4258 34.2383 10.3711 33.9844 9.375C32.8125 9.375 31.6406 9.375 30.4688 9.375C28.2422 9.375 26.2891 8.21289 25.1855 6.46484C23.5352 9.15039 20.5664 10.9375 17.1875 10.9375C15.3613 10.9375 13.5449 10.9375 11.7188 10.9375C10.9473 10.9375 10.2051 10.7715 9.54102 10.4883C9.43359 11.1426 9.375 11.8164 9.375 12.5Z" fill="white"/>
<path d="M11.7188 10.9375H17.1875C20.5664 10.9375 23.5352 9.15039 25.1855 6.46484C26.2891 8.21289 28.2422 9.375 30.4688 9.375H33.9844C32.5977 3.98438 27.6953 0 21.875 0C15.6543 0 10.498 4.54102 9.54102 10.4883C10.2051 10.7812 10.9473 10.9375 11.7188 10.9375ZM28.125 29.707C27.8613 29.6973 27.6074 29.6875 27.3438 29.6875H16.4062C16.1426 29.6875 15.8887 29.6973 15.625 29.707V36.1621C17.8809 36.8359 19.5312 38.9258 19.5312 41.4062C19.5312 44.4238 17.0801 46.875 14.0625 46.875C11.0449 46.875 8.59375 44.4238 8.59375 41.4062C8.59375 38.9258 10.2441 36.8359 12.5 36.1621V30.1562C5.32227 31.9043 0 38.3789 0 46.0938V46.875C0 48.6035 1.39648 50 3.125 50H40.625C42.3535 50 43.75 48.6035 43.75 46.875V46.0938C43.75 38.3789 38.4277 31.9043 31.25 30.1562V35.3516C33.9453 36.0449 35.9375 38.4961 35.9375 41.4062V45.3125C35.9375 46.1719 35.2344 46.875 34.375 46.875H32.8125C31.9531 46.875 31.25 46.1719 31.25 45.3125C31.25 44.4531 31.9531 43.75 32.8125 43.75V41.4062C32.8125 39.6777 31.416 38.2812 29.6875 38.2812C27.959 38.2812 26.5625 39.6777 26.5625 41.4062V43.75C27.4219 43.75 28.125 44.4531 28.125 45.3125C28.125 46.1719 27.4219 46.875 26.5625 46.875H25C24.1406 46.875 23.4375 46.1719 23.4375 45.3125V41.4062C23.4375 38.4961 25.4297 36.0449 28.125 35.3516V29.707ZM16.4062 41.4062C16.4062 40.7846 16.1593 40.1885 15.7198 39.749C15.2802 39.3094 14.6841 39.0625 14.0625 39.0625C13.4409 39.0625 12.8448 39.3094 12.4052 39.749C11.9657 40.1885 11.7188 40.7846 11.7188 41.4062C11.7188 42.0279 11.9657 42.624 12.4052 43.0635C12.8448 43.5031 13.4409 43.75 14.0625 43.75C14.6841 43.75 15.2802 43.5031 15.7198 43.0635C16.1593 42.624 16.4062 42.0279 16.4062 41.4062Z" fill="white"/>
</svg>
