<svg width="45" height="50" viewBox="0 0 45 50" fill="none" xmlns="http://www.w3.org/2000/svg">
<path opacity="0.4" d="M9.86157 16.5277C10.2244 16.6944 10.5971 16.8318 10.9894 16.92C11.1856 16.9592 11.3817 16.9985 11.5877 17.0181C11.6857 17.0279 11.7838 17.0377 11.9015 17.0475C11.9898 17.0475 12.0878 17.0573 12.2055 17.0573C14.5593 17.0573 16.913 17.0573 19.2668 17.0573C22.6601 17.0573 25.6415 15.2626 27.2989 12.5656C28.4072 14.3113 30.3686 15.4783 32.6047 15.4783C33.3893 15.4783 34.164 15.4783 34.9584 15.4783C34.9584 15.6255 34.9584 15.7628 34.9584 15.9099C34.9584 22.6082 29.535 28.0317 22.8366 28.0317H21.9736C15.4811 28.0317 10.1852 22.9319 9.86157 16.5277Z" fill="white"/>
<path d="M9.85152 9.20169V12.34V16.5179C10.5675 16.8612 11.3618 17.0475 12.2053 17.0475H19.2665C22.6598 17.0475 25.6413 15.2528 27.2987 12.5558C28.4069 14.3113 30.3684 15.4783 32.6044 15.4783H34.9582V12.34V9.20169V6.67141C34.9582 5.36704 34.1442 4.19016 32.9183 3.72922L23.5033 0.198598C22.7971 -0.0661992 22.0126 -0.0661992 21.2966 0.198598L11.8816 3.72922C10.6655 4.19016 9.85152 5.35723 9.85152 6.67141V9.20169ZM14.2942 32.7588C13.5489 31.9644 12.4406 31.5917 11.4109 31.9252C5.04595 33.9651 0.436523 39.9377 0.436523 46.9892C0.436523 48.6564 1.78993 50 3.44736 50H41.3623C43.0296 50 44.3732 48.6466 44.3732 46.9892C44.3732 39.9377 39.7637 33.9749 33.3988 31.9252C32.3691 31.5917 31.2608 31.9644 30.5155 32.7588L23.5523 40.1633C22.9344 40.8204 21.8851 40.8204 21.2672 40.1633L14.304 32.7588H14.2942ZM20.8357 4.49419C20.8357 4.06267 21.1887 3.70961 21.6203 3.70961H23.1894C23.621 3.70961 23.974 4.06267 23.974 4.49419V6.06335H25.5432C25.9747 6.06335 26.3278 6.41642 26.3278 6.84794V8.4171C26.3278 8.84862 25.9747 9.20169 25.5432 9.20169H23.974V10.7709C23.974 11.2024 23.621 11.5554 23.1894 11.5554H21.6203C21.1887 11.5554 20.8357 11.2024 20.8357 10.7709V9.20169H19.2665C18.835 9.20169 18.4819 8.84862 18.4819 8.4171V6.84794C18.4819 6.41642 18.835 6.06335 19.2665 6.06335H20.8357V4.49419Z" fill="white"/>
</svg>
