<svg width="45" height="45" viewBox="0 0 45 45" fill="none" xmlns="http://www.w3.org/2000/svg">
<g clip-path="url(#clip0_24_168)">
<path d="M35.3333 17C35.8196 17 36.2859 17.1931 36.6297 17.537C36.9735 17.8808 37.1667 18.3471 37.1667 18.8333C37.1671 22.4056 35.8637 25.8552 33.5012 28.5347C31.1386 31.2142 27.8794 32.9393 24.3352 33.3863L24.3333 37.1667H29.8333C30.3196 37.1667 30.7859 37.3598 31.1297 37.7036C31.4735 38.0474 31.6667 38.5138 31.6667 39C31.6667 39.4862 31.4735 39.9525 31.1297 40.2964C30.7859 40.6402 30.3196 40.8333 29.8333 40.8333H15.1667C14.6804 40.8333 14.2141 40.6402 13.8703 40.2964C13.5265 39.9525 13.3333 39.4862 13.3333 39C13.3333 38.5138 13.5265 38.0474 13.8703 37.7036C14.2141 37.3598 14.6804 37.1667 15.1667 37.1667H20.6667V33.3863C17.1221 32.9398 13.8625 31.2148 11.4996 28.5353C9.13666 25.8557 7.83301 22.4059 7.83334 18.8333C7.83334 18.3471 8.0265 17.8808 8.37031 17.537C8.71413 17.1931 9.18045 17 9.66668 17C10.1529 17 10.6192 17.1931 10.963 17.537C11.3069 17.8808 11.5 18.3471 11.5 18.8333C11.5 21.7507 12.6589 24.5486 14.7218 26.6115C16.7847 28.6744 19.5826 29.8333 22.5 29.8333C25.4174 29.8333 28.2153 28.6744 30.2782 26.6115C32.3411 24.5486 33.5 21.7507 33.5 18.8333C33.5 18.3471 33.6932 17.8808 34.037 17.537C34.3808 17.1931 34.8471 17 35.3333 17ZM22.5 2.33333C24.4449 2.33333 26.3102 3.10595 27.6855 4.48121C29.0607 5.85648 29.8333 7.72174 29.8333 9.66666V18.8333C29.8333 20.7782 29.0607 22.6435 27.6855 24.0188C26.3102 25.394 24.4449 26.1667 22.5 26.1667C20.5551 26.1667 18.6898 25.394 17.3146 24.0188C15.9393 22.6435 15.1667 20.7782 15.1667 18.8333V9.66666C15.1667 7.72174 15.9393 5.85648 17.3146 4.48121C18.6898 3.10595 20.5551 2.33333 22.5 2.33333Z" fill="white"/>
</g>
<defs>
<clipPath id="clip0_24_168">
<rect width="44" height="44" fill="white" transform="translate(0.5 0.5)"/>
</clipPath>
</defs>
</svg>
