<svg width="40" height="32" viewBox="0 0 40 32" fill="none" xmlns="http://www.w3.org/2000/svg">
<path opacity="0.4" d="M6 23.9999C6 24.2749 6.05625 24.5562 6.175 24.8187C6.5 25.5374 7.2125 25.9999 8 25.9999H31.9999C32.7874 25.9999 33.4999 25.5374 33.8249 24.8187C34.1499 24.0999 34.0187 23.2562 33.4937 22.6687L33.0312 22.1499C31.0812 19.95 29.9999 17.1187 29.9999 14.175V13C29.9999 8.16248 26.5625 4.12499 22 3.19999V2C22 0.893748 21.1062 0 20 0C18.8937 0 18 0.893748 18 2V3.19999C13.4375 4.12499 9.99999 8.16248 9.99999 13V14.175C9.99999 17.1125 8.91874 19.95 6.96875 22.1499L6.50625 22.6687C6.175 23.0437 6 23.5187 6 23.9999Z" fill="white"/>
<path d="M36.6687 3.34382C37.4124 2.97507 37.7124 2.07507 37.3374 1.33132C36.9624 0.587575 36.0687 0.287575 35.3249 0.662574L31.3249 2.66257C30.5812 3.03132 30.2812 3.93132 30.6562 4.67507C31.0312 5.41881 31.9249 5.71881 32.6687 5.34381L36.6687 3.34382ZM0 12.5C0 13.3313 0.668748 14 1.5 14H6.49998C7.33123 14 7.99998 13.3313 7.99998 12.5C7.99998 11.6688 7.33123 11 6.49998 11H1.5C0.668748 11 0 11.6688 0 12.5ZM31.9999 12.5C31.9999 13.3313 32.6687 14 33.4999 14H38.4999C39.3312 14 39.9999 13.3313 39.9999 12.5C39.9999 11.6688 39.3312 11 38.4999 11H33.4999C32.6687 11 31.9999 11.6688 31.9999 12.5ZM2.65624 1.33132C2.28749 2.07507 2.58749 2.97507 3.32499 3.34382L7.32498 5.34381C8.06873 5.71256 8.96873 5.41256 9.33748 4.67507C9.70623 3.93757 9.40623 3.03132 8.66873 2.66257L4.66874 0.662574C3.93124 0.287575 3.03124 0.587575 2.65624 1.33132ZM22.8249 30.8313C23.5749 30.0813 23.9937 29.0625 23.9937 28H19.9937H15.9937C15.9937 29.0625 16.4125 30.0813 17.1625 30.8313C17.9125 31.5812 18.9312 32 19.9937 32C21.0562 32 22.0749 31.5812 22.8249 30.8313Z" fill="white"/>
</svg>
