<svg width="45" height="50" viewBox="0 0 45 50" fill="none" xmlns="http://www.w3.org/2000/svg">
<path opacity="0.4" d="M13.0532 15.6941C13.0532 20.892 17.2704 25.1091 22.4682 25.1091C27.6661 25.1091 31.8832 20.892 31.8832 15.6941V14.125H31.0986C28.8626 14.125 26.9011 12.9579 25.7929 11.2024C24.1355 13.8994 21.154 15.6941 17.7607 15.6941H13.0532Z" fill="white"/>
<path d="M9.915 14.988V6.67141C9.915 5.36704 10.729 4.19016 11.9549 3.72922L21.3699 0.198598C22.076 -0.0661992 22.8606 -0.0661992 23.5667 0.198598L32.9817 3.72922C34.2076 4.19016 35.0217 5.36704 35.0217 6.67141V14.988C35.0217 18.3127 36.3456 21.5098 38.6994 23.8636L39.0819 24.2461C39.4938 24.658 39.7291 25.2268 39.7291 25.8152C39.7291 27.0411 38.7386 28.0317 37.5127 28.0317H7.43375C6.20784 28.0317 5.21731 27.0411 5.21731 25.8152C5.21731 25.2268 5.45268 24.658 5.86459 24.2461L6.24707 23.8636C8.60082 21.5098 9.9248 18.3127 9.9248 14.988H9.915ZM21.3209 40.1535C21.9387 40.8106 22.9881 40.8106 23.606 40.1535L30.5691 32.749C31.3145 31.9546 32.4227 31.5819 33.4525 31.9154C39.8272 33.9749 44.4366 39.9475 44.4366 46.9892C44.4366 48.6564 43.0832 50 41.4258 50H3.51084C1.8436 50 0.5 48.6466 0.5 46.9892C0.5 39.9377 5.10943 33.9749 11.4744 31.9252C12.5041 31.5917 13.6123 31.9644 14.3577 32.7588L21.3209 40.1633V40.1535ZM21.6837 3.92537C21.2522 3.92537 20.8992 4.27843 20.8992 4.70995V6.27912H19.33C18.8985 6.27912 18.5454 6.63218 18.5454 7.0637V8.63286C18.5454 9.06439 18.8985 9.41745 19.33 9.41745H20.8992V10.9866C20.8992 11.4181 21.2522 11.7712 21.6837 11.7712H23.2529C23.6844 11.7712 24.0375 11.4181 24.0375 10.9866V9.41745H25.6067C26.0382 9.41745 26.3912 9.06439 26.3912 8.63286V7.0637C26.3912 6.63218 26.0382 6.27912 25.6067 6.27912H24.0375V4.70995C24.0375 4.27843 23.6844 3.92537 23.2529 3.92537H21.6837ZM17.7608 15.6941H13.0533C13.0533 20.892 17.2705 25.1091 22.4683 25.1091C27.6662 25.1091 31.8833 20.892 31.8833 15.6941V14.1249H31.0987C28.8627 14.1249 26.9012 12.9579 25.793 11.2024C24.1356 13.8994 21.1541 15.6941 17.7608 15.6941Z" fill="white"/>
</svg>
