<svg width="16" height="16" viewBox="0 0 16 16" fill="none" xmlns="http://www.w3.org/2000/svg">
<g clip-path="url(#clip0_99_6)">
<path opacity="0.4" d="M6 8C6 8.53043 6.21071 9.03914 6.58579 9.41421C6.96086 9.78929 7.46957 10 8 10C8.53043 10 9.03914 9.78929 9.41421 9.41421C9.78929 9.03914 10 8.53043 10 8C10 7.46957 9.78929 6.96086 9.41421 6.58579C9.03914 6.21071 8.53043 6 8 6C7.46957 6 6.96086 6.21071 6.58579 6.58579C6.21071 6.96086 6 7.46957 6 8Z" fill="white"/>
<path d="M9.54375 0.68125C9.50313 0.35625 9.25937 0.09375 8.93437 0.05625C8.62813 0.01875 8.31563 0 8 0C7.65312 0 7.30937 0.021875 6.975 0.065625C6.65312 0.10625 6.4125 0.36875 6.37187 0.690625L6.28125 1.4125C6.25625 1.6125 6.1125 1.775 5.92188 1.84063C5.62187 1.94063 5.32812 2.06562 5.05 2.20625C4.86875 2.3 4.65 2.28437 4.4875 2.15937L3.925 1.72187C3.66875 1.52187 3.30937 1.50937 3.05312 1.70938C2.53437 2.11562 2.06875 2.58437 1.66562 3.10625C1.46875 3.3625 1.48125 3.71875 1.68125 3.975L2.125 4.54688C2.25 4.70625 2.2625 4.92188 2.17188 5.10313C2.03437 5.37813 1.91562 5.6625 1.81875 5.95937C1.75625 6.15312 1.59063 6.29688 1.39062 6.32188L0.678125 6.4125C0.35625 6.45312 0.09375 6.69688 0.053125 7.01875C0.021875 7.3375 0 7.66563 0 8C0 8.33125 0.01875 8.65938 0.059375 8.98125C0.1 9.30312 0.3625 9.54688 0.684375 9.5875L1.39688 9.67813C1.59688 9.70312 1.7625 9.84687 1.825 10.0406C1.92188 10.3375 2.04062 10.625 2.17812 10.9C2.26875 11.0812 2.25312 11.2969 2.13125 11.4563L1.6875 12.025C1.4875 12.2812 1.475 12.6375 1.67188 12.8938C2.075 13.4156 2.54063 13.8844 3.05938 14.2906C3.31562 14.4906 3.675 14.4781 3.93125 14.2781L4.49375 13.8406C4.65313 13.7156 4.875 13.7031 5.05625 13.7937C5.3375 13.9375 5.62812 14.0594 5.92812 14.1594C6.11875 14.225 6.2625 14.3875 6.2875 14.5875L6.37813 15.3094C6.41875 15.6312 6.65937 15.8938 6.98125 15.9344C7.31562 15.9781 7.65938 16 8.00625 16C8.32188 16 8.63438 15.9812 8.94063 15.9469C9.26562 15.9094 9.50938 15.6437 9.55 15.3219L9.6375 14.6187C9.6625 14.4156 9.80937 14.25 10.0031 14.1875C10.3156 14.0875 10.6188 13.9625 10.9094 13.8188C11.0906 13.7281 11.3062 13.7438 11.4656 13.8656L12.0312 14.3094C12.2875 14.5094 12.6437 14.5219 12.9 14.325C12.9875 14.2562 13.0719 14.1875 13.1562 14.1156L14.1156 13.1562C14.1719 13.0875 14.2281 13.0188 14.2844 12.95C14.4875 12.6937 14.4719 12.3344 14.2719 12.0781L13.8344 11.5188C13.7094 11.3594 13.6969 11.1375 13.7875 10.9563C13.9375 10.6625 14.0688 10.3531 14.1719 10.0344C14.2344 9.84062 14.4 9.69687 14.6 9.67188L15.3125 9.58438C15.6344 9.54375 15.9 9.3 15.9375 8.97812C15.9438 8.925 15.95 8.86875 15.9563 8.81563V7.19375C15.95 7.14062 15.9438 7.08437 15.9375 7.03125C15.8969 6.70937 15.6344 6.46563 15.3125 6.425L14.6 6.3375C14.4 6.3125 14.2344 6.16875 14.1719 5.975C14.0656 5.65625 13.9375 5.34687 13.7875 5.05312C13.6938 4.87187 13.7094 4.65312 13.8344 4.49062L14.2719 3.93125C14.4719 3.675 14.4844 3.31562 14.2844 3.05938C14.2281 2.99063 14.1719 2.92188 14.1156 2.85313L13.1562 1.88437C13.0719 1.8125 12.9875 1.74375 12.9 1.675C12.6437 1.475 12.2875 1.49062 12.0312 1.69062L11.4594 2.13438C11.3 2.25938 11.0813 2.27188 10.9031 2.18125C10.6125 2.0375 10.3094 1.9125 9.99687 1.8125C9.80312 1.75 9.65625 1.58438 9.63125 1.38437L9.54375 0.68125ZM8 5C8.79565 5 9.55871 5.31607 10.1213 5.87868C10.6839 6.44129 11 7.20435 11 8C11 8.79565 10.6839 9.55871 10.1213 10.1213C9.55871 10.6839 8.79565 11 8 11C7.20435 11 6.44129 10.6839 5.87868 10.1213C5.31607 9.55871 5 8.79565 5 8C5 7.20435 5.31607 6.44129 5.87868 5.87868C6.44129 5.31607 7.20435 5 8 5Z" fill="white"/>
</g>
<defs>
<clipPath id="clip0_99_6">
<rect width="16" height="16" fill="white"/>
</clipPath>
</defs>
</svg>
