<svg width="45" height="50" viewBox="0 0 45 50" fill="none" xmlns="http://www.w3.org/2000/svg">
<path opacity="0.4" d="M13.25 10.9375C13.25 11.9824 13.25 13.0176 13.25 14.0625C13.25 19.2383 17.4492 23.4375 22.625 23.4375C27.8008 23.4375 32 19.2383 32 14.0625V12.5V9.375C31.7363 9.375 31.4824 9.375 31.2188 9.375C28.9922 9.375 27.0391 8.21289 25.9355 6.46484C24.2852 9.15039 21.3164 10.9375 17.9375 10.9375C16.375 10.9375 14.8125 10.9375 13.25 10.9375Z" fill="white"/>
<path d="M17.9375 10.9375H13.25V14.0625C13.25 19.2383 17.4492 23.4375 22.625 23.4375C27.8008 23.4375 32 19.2383 32 14.0625V12.5V9.375H31.2188C28.9922 9.375 27.0391 8.21289 25.9355 6.46484C24.2852 9.15039 21.3164 10.9375 17.9375 10.9375ZM22.625 26.5625H7.64453C6.42383 26.5625 5.4375 25.5762 5.4375 24.3555C5.4375 23.7695 5.67188 23.2031 6.08203 22.793L6.46289 22.4121C8.80664 20.0684 10.125 16.8848 10.125 13.5742V12.5C10.125 5.5957 15.7207 0 22.625 0C29.5195 0 35.1055 5.57617 35.125 12.4609V12.5391V12.5586V13.5645C35.125 16.875 36.4434 20.0586 38.7871 22.4023L39.168 22.7832C39.5781 23.1934 39.8125 23.7598 39.8125 24.3457C39.8125 25.5664 38.8262 26.5527 37.6055 26.5527L22.625 26.5625ZM28.875 29.707V35.3516C26.1797 36.0449 24.1875 38.4961 24.1875 41.4062V45.3125C24.1875 46.1719 24.8906 46.875 25.75 46.875H27.3125C28.1719 46.875 28.875 46.1719 28.875 45.3125C28.875 44.4531 28.1719 43.75 27.3125 43.75V41.4062C27.3125 39.6777 28.709 38.2812 30.4375 38.2812C32.166 38.2812 33.5625 39.6777 33.5625 41.4062V43.75C32.7031 43.75 32 44.4531 32 45.3125C32 46.1719 32.7031 46.875 33.5625 46.875H35.125C35.9844 46.875 36.6875 46.1719 36.6875 45.3125V41.4062C36.6875 38.4961 34.6953 36.0449 32 35.3516V30.1562C39.1777 31.9043 44.5 38.3789 44.5 46.0938V46.875C44.5 48.6035 43.1035 50 41.375 50H3.875C2.14648 50 0.75 48.6035 0.75 46.875V46.0938C0.75 38.3789 6.07227 31.9043 13.25 30.1562V36.1621C10.9941 36.8359 9.34375 38.9258 9.34375 41.4062C9.34375 44.4238 11.7949 46.875 14.8125 46.875C17.8301 46.875 20.2812 44.4238 20.2812 41.4062C20.2812 38.9258 18.6309 36.8359 16.375 36.1621V29.707C16.6387 29.6973 16.8926 29.6875 17.1562 29.6875H28.0938C28.3574 29.6875 28.6113 29.6973 28.875 29.707ZM12.4688 41.4062C12.4688 40.7846 12.7157 40.1885 13.1552 39.749C13.5948 39.3094 14.1909 39.0625 14.8125 39.0625C15.4341 39.0625 16.0302 39.3094 16.4698 39.749C16.9093 40.1885 17.1562 40.7846 17.1562 41.4062C17.1562 42.0279 16.9093 42.624 16.4698 43.0635C16.0302 43.5031 15.4341 43.75 14.8125 43.75C14.1909 43.75 13.5948 43.5031 13.1552 43.0635C12.7157 42.624 12.4688 42.0279 12.4688 41.4062Z" fill="white"/>
</svg>
