<svg width="53" height="53" viewBox="0 0 53 53" fill="none" xmlns="http://www.w3.org/2000/svg">
<path opacity="0.4" d="M3 3.34272C3 4.2266 3.35112 5.07428 3.97611 5.69927C4.6011 6.32427 5.44877 6.67539 6.33264 6.67539C7.21651 6.67539 8.06418 6.32427 8.68917 5.69927C9.31416 5.07428 9.66528 4.2266 9.66528 3.34272C9.66528 2.45885 9.31416 1.61117 8.68917 0.986174C8.06418 0.361179 7.21651 0.0100599 6.33264 0.0100599C5.44877 0.0100599 4.6011 0.361179 3.97611 0.986174C3.35112 1.61117 3 2.45885 3 3.34272ZM3.40617 39.4292C6.79088 42.8139 10.186 46.2091 13.5707 49.5938C14.7163 49.1668 15.8515 48.7398 16.9971 48.3128C12.8938 44.2095 8.79046 40.1062 4.68715 36.0028C4.26015 37.1484 3.83316 38.2836 3.40617 39.4292ZM7.04083 29.7332C12.4459 35.1384 17.8615 40.554 23.2666 45.9591L26.693 44.6782L8.32181 26.3069C7.89481 27.4525 7.46782 28.5876 7.04083 29.7332ZM17.0596 12.4034C16.0806 13.3824 16.0806 14.9654 17.0596 15.9339C18.0385 16.9025 19.6215 16.9129 20.5901 15.9339L21.4545 15.0695C23.9956 12.5388 25.5995 9.20613 25.9952 5.63393L26.3076 2.78034C26.4639 1.40561 25.4745 0.176693 24.0998 0.0204745C24.006 0.0100599 23.9123 0.0100599 23.8186 0.0100599C22.5584 0.0100599 21.4753 0.957786 21.3399 2.23878L21.0275 5.09237C20.7567 7.53979 19.6632 9.82059 17.924 11.5598L17.0596 12.4034ZM26.9117 22.4535C27.8073 23.5053 29.3799 23.6407 30.4318 22.7451L31.4732 21.8598C32.0773 21.3495 32.8479 21.0787 33.629 21.0996C38.0552 21.2141 41.7836 17.7981 42.0439 13.372L42.2314 10.2476C42.3356 8.51877 43.7936 7.1857 45.5224 7.22736C47.5428 7.27943 49.5007 6.59207 51.0421 5.29025L52.0835 4.40501C53.1354 3.50936 53.2708 1.93676 52.3751 0.884884C51.4795 -0.166988 49.9069 -0.302377 48.855 0.593276L47.8136 1.47851C47.2095 1.98883 46.4389 2.25961 45.6578 2.23878C41.2316 2.12422 37.5032 5.5402 37.2429 9.96639L37.0554 13.0908C36.9513 14.8196 35.4932 16.1526 33.7644 16.111C31.744 16.0589 29.7861 16.7463 28.2447 18.0481L27.2033 18.9333C26.1514 19.829 26.016 21.4016 26.9117 22.4535ZM37.0554 32.3994C36.0764 33.3783 36.0764 34.9614 37.0554 35.9299C38.0344 36.8985 39.6174 36.9089 40.5859 35.9299L41.4503 35.0655C43.1895 33.3263 45.4703 32.2327 47.9177 31.962L50.7713 31.6495C52.0523 31.5037 53 30.4206 53 29.1709C53 29.0771 53 28.9834 52.9896 28.8897C52.8334 27.5149 51.6045 26.5256 50.2297 26.6818L47.3762 26.9942C43.804 27.39 40.4714 28.9938 37.9302 31.535L37.0554 32.3994ZM46.3243 16.6734C46.3243 17.5573 46.6754 18.4049 47.3004 19.0299C47.9254 19.6549 48.7731 20.006 49.6569 20.006C50.5408 20.006 51.3885 19.6549 52.0135 19.0299C52.6385 18.4049 52.9896 17.5573 52.9896 16.6734C52.9896 15.7895 52.6385 14.9418 52.0135 14.3168C51.3885 13.6918 50.5408 13.3407 49.6569 13.3407C48.7731 13.3407 47.9254 13.6918 47.3004 14.3168C46.6754 14.9418 46.3243 15.7895 46.3243 16.6734ZM46.3243 46.6673C46.3243 47.5512 46.6754 48.3989 47.3004 49.0239C47.9254 49.6489 48.7731 50 49.6569 50C50.5408 50 51.3885 49.6489 52.0135 49.0239C52.6385 48.3989 52.9896 47.5512 52.9896 46.6673C52.9896 45.7835 52.6385 44.9358 52.0135 44.3108C51.3885 43.6858 50.5408 43.3347 49.6569 43.3347C48.7731 43.3347 47.9254 43.6858 47.3004 44.3108C46.6754 44.9358 46.3243 45.7835 46.3243 46.6673Z" fill="white"/>
<path d="M12.5046 20.0743C13.5978 19.8371 14.7426 20.1774 15.5367 20.961L32.0377 37.4585C32.8318 38.2524 33.1618 39.3969 32.9246 40.4899C32.6874 41.5828 31.9036 42.4902 30.862 42.882L26.7677 44.4183L8.5753 26.2402L10.112 22.1467C10.5039 21.095 11.4114 20.3217 12.5046 20.0846V20.0743ZM7.30678 29.6325L23.3747 45.6969L17.1661 48.0271L4.97601 35.8396L7.30678 29.6325ZM13.7731 49.2954L4.46035 52.7908C3.25372 53.2445 1.88207 52.9454 0.964197 52.0381C0.0463267 51.1307 -0.242441 49.7491 0.211337 48.5427L3.69718 39.2319L13.7628 49.2954H13.7731Z" fill="white"/>
</svg>
