<svg width="118" height="21" viewBox="0 0 118 21" fill="none" xmlns="http://www.w3.org/2000/svg">
<path d="M76.3892 7.33501C78.1248 7.33501 79.4554 7.71298 80.3811 8.46893C81.3067 9.22487 81.7695 10.3742 81.7695 11.917V20.5371H79.305L78.6223 18.7783H78.5298C78.1595 19.2412 77.7815 19.6191 77.3959 19.9123C77.0102 20.2054 76.5666 20.4214 76.0652 20.5602C75.5638 20.6991 74.9545 20.7685 74.2371 20.7685C73.4734 20.7685 72.7869 20.6219 72.1775 20.3288C71.5758 20.0357 71.1014 19.5883 70.7543 18.9866C70.4072 18.3772 70.2336 17.6059 70.2336 16.6725C70.2336 15.2994 70.7158 14.2889 71.68 13.641C72.6442 12.9853 74.0905 12.6228 76.0189 12.5534L78.2636 12.4839V11.917C78.2636 11.2382 78.0862 10.7406 77.7314 10.4244C77.3766 10.1081 76.8829 9.94996 76.2504 9.94996C75.6255 9.94996 75.0123 10.0387 74.4106 10.2161C73.809 10.3935 73.2073 10.6172 72.6056 10.8872L71.437 8.50364C72.1235 8.14109 72.891 7.85568 73.7395 7.64741C74.5958 7.43914 75.479 7.33501 76.3892 7.33501ZM78.2636 14.5435L76.8983 14.5898C75.7567 14.6206 74.9622 14.825 74.5148 15.203C74.0751 15.581 73.8552 16.0785 73.8552 16.6956C73.8552 17.2356 74.0134 17.6213 74.3296 17.8527C74.6459 18.0764 75.0586 18.1882 75.5677 18.1882C76.3236 18.1882 76.96 17.9645 77.4768 17.5171C78.0014 17.0697 78.2636 16.4334 78.2636 15.608V14.5435Z" fill="white"/>
<path d="M66.2419 17.9568C66.6275 17.9568 67.0017 17.9183 67.3642 17.8411C67.7345 17.764 68.1009 17.6676 68.4634 17.5519V20.1784C68.0854 20.3481 67.6149 20.4869 67.0518 20.5949C66.4964 20.7106 65.887 20.7685 65.2236 20.7685C64.4523 20.7685 63.758 20.6451 63.1409 20.3982C62.5315 20.1437 62.0494 19.7078 61.6946 19.0907C61.3475 18.4659 61.1739 17.5981 61.1739 16.4874V10.2508H59.4846V8.75819L61.4285 7.57799L62.4467 4.84732H64.703V7.60113H68.3246V10.2508H64.703V16.4874C64.703 16.981 64.8418 17.3513 65.1195 17.5981C65.4049 17.8373 65.779 17.9568 66.2419 17.9568Z" fill="white"/>
<path d="M58.0382 16.6956C58.0382 17.575 57.8299 18.3194 57.4134 18.9288C57.0046 19.5304 56.3913 19.9894 55.5737 20.3057C54.756 20.6142 53.7378 20.7685 52.519 20.7685C51.6165 20.7685 50.8413 20.7106 50.1933 20.5949C49.5531 20.4792 48.9051 20.2864 48.2495 20.0164V17.1006C48.9514 17.4169 49.7035 17.6791 50.5057 17.8874C51.3157 18.088 52.0253 18.1882 52.6347 18.1882C53.3212 18.1882 53.8111 18.088 54.1042 17.8874C54.405 17.6791 54.5554 17.4092 54.5554 17.0775C54.5554 16.8615 54.4937 16.6686 54.3703 16.4989C54.2546 16.3215 54.0001 16.1248 53.6067 15.9088C53.2133 15.6851 52.5962 15.3959 51.7554 15.041C50.9454 14.7016 50.2782 14.3584 49.7536 14.0113C49.2368 13.6641 48.8511 13.2553 48.5966 12.7848C48.3497 12.3065 48.2263 11.701 48.2263 10.9682C48.2263 9.77256 48.6891 8.8739 49.6148 8.27223C50.5482 7.66285 51.7939 7.35815 53.3521 7.35815C54.1543 7.35815 54.918 7.43915 55.6431 7.60114C56.3759 7.76313 57.128 8.02154 57.8993 8.37637L56.8349 10.9219C56.1946 10.6442 55.5891 10.4167 55.0183 10.2392C54.4552 10.0618 53.8805 9.97311 53.2942 9.97311C52.7774 9.97311 52.3879 10.0425 52.1256 10.1814C51.8633 10.3202 51.7322 10.5324 51.7322 10.8178C51.7322 11.026 51.7978 11.2112 51.9289 11.3732C52.0678 11.5351 52.33 11.7164 52.7157 11.917C53.1091 12.1098 53.6838 12.3605 54.4397 12.6691C55.1725 12.9699 55.8089 13.2862 56.3489 13.6179C56.8888 13.9418 57.3054 14.3468 57.5985 14.8328C57.8916 15.311 58.0382 15.932 58.0382 16.6956Z" fill="white"/>
<path d="M45.2988 7.60113V20.5371H41.7698V7.60113H45.2988ZM43.5401 2.5332C44.0646 2.5332 44.5159 2.65662 44.8939 2.90346C45.2718 3.14259 45.4608 3.59384 45.4608 4.25722C45.4608 4.91289 45.2718 5.368 44.8939 5.62256C44.5159 5.8694 44.0646 5.99282 43.5401 5.99282C43.0079 5.99282 42.5527 5.8694 42.1748 5.62256C41.8045 5.368 41.6194 4.91289 41.6194 4.25722C41.6194 3.59384 41.8045 3.14259 42.1748 2.90346C42.5527 2.65662 43.0079 2.5332 43.5401 2.5332Z" fill="white"/>
<path d="M39.016 16.6956C39.016 17.575 38.8077 18.3194 38.3912 18.9288C37.9823 19.5304 37.3691 19.9894 36.5514 20.3057C35.7338 20.6142 34.7156 20.7685 33.4968 20.7685C32.5943 20.7685 31.8191 20.7106 31.1711 20.5949C30.5309 20.4792 29.8829 20.2864 29.2272 20.0164V17.1006C29.9292 17.4169 30.6813 17.6791 31.4835 17.8874C32.2935 18.088 33.0031 18.1882 33.6125 18.1882C34.299 18.1882 34.7888 18.088 35.082 17.8874C35.3828 17.6791 35.5332 17.4092 35.5332 17.0775C35.5332 16.8615 35.4715 16.6686 35.3481 16.4989C35.2324 16.3215 34.9778 16.1248 34.5844 15.9088C34.191 15.6851 33.5739 15.3959 32.7331 15.041C31.9232 14.7016 31.256 14.3584 30.7314 14.0113C30.2146 13.6641 29.8289 13.2553 29.5744 12.7848C29.3275 12.3065 29.2041 11.701 29.2041 10.9682C29.2041 9.77256 29.6669 8.8739 30.5926 8.27223C31.5259 7.66285 32.7717 7.35815 34.3299 7.35815C35.1321 7.35815 35.8958 7.43915 36.6209 7.60114C37.3537 7.76313 38.1058 8.02154 38.8771 8.37637L37.8126 10.9219C37.1724 10.6442 36.5669 10.4167 35.9961 10.2392C35.4329 10.0618 34.8583 9.97311 34.272 9.97311C33.7552 9.97311 33.3657 10.0425 33.1034 10.1814C32.8411 10.3202 32.71 10.5324 32.71 10.8178C32.71 11.026 32.7756 11.2112 32.9067 11.3732C33.0455 11.5351 33.3078 11.7164 33.6935 11.917C34.0869 12.1098 34.6616 12.3605 35.4175 12.6691C36.1503 12.9699 36.7867 13.2862 37.3267 13.6179C37.8666 13.9418 38.2832 14.3468 38.5763 14.8328C38.8694 15.311 39.016 15.932 39.016 16.6956Z" fill="white"/>
<path d="M27.2372 16.6956C27.2372 17.575 27.0289 18.3194 26.6124 18.9288C26.2035 19.5304 25.5903 19.9894 24.7726 20.3057C23.955 20.6142 22.9368 20.7685 21.718 20.7685C20.8155 20.7685 20.0403 20.7106 19.3923 20.5949C18.7521 20.4792 18.1041 20.2864 17.4484 20.0164V17.1006C18.1504 17.4169 18.9025 17.6791 19.7047 17.8874C20.5146 18.088 21.2243 18.1882 21.8337 18.1882C22.5202 18.1882 23.01 18.088 23.3032 17.8874C23.604 17.6791 23.7544 17.4092 23.7544 17.0775C23.7544 16.8615 23.6927 16.6686 23.5693 16.4989C23.4536 16.3215 23.199 16.1248 22.8056 15.9088C22.4122 15.6851 21.7951 15.3959 20.9543 15.041C20.1444 14.7016 19.4771 14.3584 18.9526 14.0113C18.4358 13.6641 18.0501 13.2553 17.7956 12.7848C17.5487 12.3065 17.4253 11.701 17.4253 10.9682C17.4253 9.77256 17.8881 8.8739 18.8138 8.27223C19.7471 7.66285 20.9929 7.35815 22.5511 7.35815C23.3533 7.35815 24.117 7.43915 24.8421 7.60114C25.5749 7.76313 26.327 8.02154 27.0983 8.37637L26.0338 10.9219C25.3936 10.6442 24.7881 10.4167 24.2172 10.2392C23.6541 10.0618 23.0795 9.97311 22.4932 9.97311C21.9764 9.97311 21.5869 10.0425 21.3246 10.1814C21.0623 10.3202 20.9312 10.5324 20.9312 10.8178C20.9312 11.026 20.9968 11.2112 21.1279 11.3732C21.2667 11.5351 21.529 11.7164 21.9147 11.917C22.3081 12.1098 22.8828 12.3605 23.6387 12.6691C24.3715 12.9699 25.0079 13.2862 25.5479 13.6179C26.0878 13.9418 26.5044 14.3468 26.7975 14.8328C27.0906 15.311 27.2372 15.932 27.2372 16.6956Z" fill="white"/>
<path d="M12.4847 20.5371L11.2582 16.5105H5.09107L3.86458 20.5371H0L5.97044 3.55142H10.3557L16.3493 20.5371H12.4847ZM10.402 13.5021L9.1755 9.56814C9.09836 9.30587 8.99422 8.97032 8.86309 8.5615C8.73967 8.14495 8.61239 7.72456 8.48126 7.3003C8.35784 6.86833 8.25756 6.49421 8.18042 6.17795C8.10328 6.49421 7.99529 6.88761 7.85645 7.35815C7.72531 7.82098 7.59803 8.26066 7.47462 8.6772C7.3512 9.09374 7.26249 9.39072 7.20849 9.56814L5.99358 13.5021H10.402Z" fill="white"/>
<path d="M109.502 20.8846C108.561 20.8846 107.812 20.6179 107.253 20.0843C106.694 19.5254 106.415 18.7505 106.415 17.7596C106.415 16.9974 106.554 16.197 106.834 15.3586C107.139 14.5202 107.431 13.8596 107.71 13.3769C108.295 12.3098 108.993 11.3316 109.806 10.4423C110.645 9.55309 111.496 8.84169 112.36 8.30814C113.249 7.74919 114.062 7.46971 114.799 7.46971C115.485 7.46971 116.069 7.66027 116.552 8.04137C117.06 8.42248 117.314 8.93062 117.314 9.56579C117.314 9.81986 117.251 10.112 117.124 10.4423C116.997 10.7726 116.793 11.1156 116.514 11.4713C115.498 12.7671 114.367 13.7834 113.122 14.5202C111.902 15.2316 110.505 15.7651 108.93 16.1208C108.828 16.4511 108.739 16.7814 108.663 17.1117C108.587 17.4166 108.523 17.7088 108.473 17.9882C108.447 18.1153 108.422 18.2423 108.396 18.3693C108.396 18.471 108.396 18.5853 108.396 18.7123C108.396 19.2205 108.511 19.5889 108.739 19.8175C108.993 20.0208 109.298 20.1224 109.654 20.1224C110.213 20.1224 110.81 19.9827 111.445 19.7032C112.08 19.3983 112.677 19.0553 113.236 18.6742C113.795 18.2931 114.215 17.9882 114.494 17.7596C114.773 17.5055 115.04 17.2514 115.294 16.9974C115.574 16.7179 115.879 16.413 116.209 16.0827C116.463 15.8032 116.704 15.5365 116.933 15.2824C117.162 15.0029 117.378 14.7234 117.581 14.444C117.657 14.3677 117.721 14.3296 117.772 14.3296C117.924 14.3296 118 14.444 118 14.6726C118 14.7997 117.949 14.914 117.848 15.0156C117.39 15.5746 116.933 16.1335 116.476 16.6925C116.018 17.226 115.548 17.7469 115.066 18.255C114.507 18.8394 113.732 19.4237 112.741 20.0081C111.775 20.5925 110.696 20.8846 109.502 20.8846ZM109.159 15.6254C109.819 15.3459 110.581 14.9394 111.445 14.4058C112.334 13.8723 113.186 13.2371 113.999 12.5003C114.837 11.7381 115.523 10.9251 116.057 10.0612C116.234 9.78175 116.323 9.52768 116.323 9.29902C116.323 8.94332 116.12 8.76547 115.714 8.76547C115.434 8.76547 115.091 8.8671 114.685 9.07036C113.414 9.75635 112.322 10.6837 111.407 11.8524C110.492 13.0212 109.743 14.2788 109.159 15.6254Z" fill="white"/>
<path d="M106.029 5.25921C105.749 5.25921 105.52 5.17029 105.343 4.99244C105.165 4.78918 105.076 4.56052 105.076 4.30645C105.076 3.92534 105.203 3.60775 105.457 3.35368C105.736 3.0742 106.041 2.93446 106.372 2.93446C106.702 2.93446 106.956 3.0488 107.134 3.27746C107.337 3.48072 107.413 3.74749 107.363 4.07778C107.286 4.40807 107.121 4.68755 106.867 4.91621C106.638 5.14488 106.359 5.25921 106.029 5.25921ZM100.807 20.3129C100.249 20.3129 99.7658 20.135 99.3593 19.7794C98.9528 19.3982 98.7495 18.7631 98.7495 17.8738C98.7495 17.4927 98.7876 17.0735 98.8638 16.6162C99.0925 15.422 99.4609 14.2787 99.9691 13.1862C100.503 12.0937 101.011 11.1537 101.493 10.366C102.002 9.55301 102.332 9.01946 102.484 8.76539C102.611 8.51131 102.942 8.26995 103.475 8.04128C104.009 7.78721 104.453 7.66018 104.809 7.66018C105.114 7.66018 105.266 7.76181 105.266 7.96506C105.266 8.14291 105.203 8.30806 105.076 8.4605C104.695 9.07027 104.25 9.76896 103.742 10.5566C103.259 11.3188 102.789 12.1318 102.332 12.9957C101.875 13.8595 101.493 14.7106 101.189 15.5491C100.884 16.3875 100.731 17.1624 100.731 17.8738C100.731 18.2549 100.795 18.5598 100.922 18.7885C101.074 19.0171 101.341 19.1315 101.722 19.1315C102.129 19.1315 102.599 18.9409 103.132 18.5598C103.666 18.1533 104.174 17.7087 104.657 17.2259C105.165 16.7178 105.533 16.324 105.762 16.0445C106.016 15.765 106.257 15.4983 106.486 15.2442C106.74 14.9901 106.969 14.7233 107.172 14.4439C107.248 14.3676 107.312 14.3295 107.363 14.3295C107.515 14.3295 107.591 14.4439 107.591 14.6725C107.591 14.7996 107.54 14.9139 107.439 15.0155C107.159 15.3458 106.88 15.6888 106.6 16.0445C106.321 16.3748 106.029 16.7051 105.724 17.0354C105.317 17.5181 104.86 18.0136 104.352 18.5217C103.844 19.0298 103.297 19.4618 102.713 19.8175C102.129 20.1478 101.493 20.3129 100.807 20.3129Z" fill="white"/>
<path d="M90.176 20.6941C89.5916 20.6941 89.1216 20.3892 88.7659 19.7794C88.5118 19.2459 88.3848 18.5218 88.3848 17.6071C88.3848 16.8703 88.4483 16.1208 88.5753 15.3586C88.7278 14.571 88.8675 13.9104 88.9945 13.3768C89.2994 12.1573 89.5916 10.8234 89.8711 9.37521C90.176 7.9016 90.4173 6.4661 90.5952 5.06871C90.7984 3.67132 90.9001 2.46449 90.9001 1.4482C90.9001 0.863842 90.862 0.381107 90.7857 0C91.4717 0.0254083 92.0434 0.241368 92.5007 0.647881C92.958 1.05439 93.1867 1.71498 93.1867 2.62963C93.1867 3.44266 93.0851 4.39543 92.8818 5.48793C92.704 6.58043 92.5007 7.63483 92.272 8.65111C92.0434 9.64198 91.8401 10.4169 91.6623 10.9759C91.4844 11.5348 91.2685 12.2716 91.0144 13.1863C90.7603 14.1009 90.5317 15.0537 90.3284 16.0446C90.1251 17.01 89.9981 17.8993 89.9473 18.7123C90.0743 18.382 90.303 17.9628 90.6333 17.4547C90.989 16.9211 91.3574 16.3876 91.7385 15.854C92.1196 15.2951 92.4499 14.825 92.7294 14.4439C93.5932 13.2498 94.5079 12.0175 95.4733 10.7472C96.4388 9.47684 97.3789 8.21919 98.2935 6.97424C99.2082 5.70389 100.021 4.49705 100.733 3.35373C101.469 2.18501 102.028 1.11791 102.409 0.152443C102.841 0.152443 103.197 0.279478 103.477 0.533549C103.781 0.787621 103.934 1.13062 103.934 1.56254C103.934 1.81661 103.858 2.12149 103.705 2.47719C103.451 3.03615 103.222 3.50618 103.019 3.88728C102.816 4.24298 102.587 4.59868 102.333 4.95438C102.105 5.28467 101.8 5.71659 101.419 6.25014C100.834 7.03776 100.148 7.92701 99.3606 8.91788C98.5984 9.88335 97.8108 10.8869 96.9978 11.9286C96.1847 12.9449 95.4098 13.9104 94.673 14.825C93.9616 15.7397 93.3518 16.5273 92.8437 17.1879C92.3356 17.8231 92.018 18.2423 91.8909 18.4455C91.5606 18.9283 91.2812 19.3602 91.0525 19.7413C90.8493 20.1224 90.6968 20.4146 90.5952 20.6178C90.519 20.6432 90.4427 20.656 90.3665 20.656C90.3157 20.6814 90.2522 20.6941 90.176 20.6941Z" fill="white"/>
</svg>
