<svg width="123" height="52" viewBox="0 0 123 52" fill="none" xmlns="http://www.w3.org/2000/svg">
<path d="M3.472 33.432C4.384 34.152 5.944 35.136 8.152 36.384C10.408 37.632 12.544 38.256 14.56 38.256C16.624 38.256 17.656 37.464 17.656 35.88C17.656 35.16 17.368 34.536 16.792 34.008C16.216 33.432 15.16 32.784 13.624 32.064C12.088 31.344 10.936 30.792 10.168 30.408C9.4 29.976 8.368 29.304 7.072 28.392C5.824 27.432 4.864 26.448 4.192 25.44C2.272 22.704 1.312 19.224 1.312 15C1.312 10.776 2.872 7.224 5.992 4.344C9.16 1.416 13.288 -0.0480037 18.376 -0.0480037C21.832 -0.0480037 25.024 0.335997 27.952 1.104C30.88 1.824 32.392 2.784 32.488 3.984C32.488 4.128 32.488 4.272 32.488 4.416C32.488 6.096 31.96 8.232 30.904 10.824C29.848 13.368 29.104 14.784 28.672 15.072C25.6 13.488 22.84 12.696 20.392 12.696C17.992 12.696 16.792 13.56 16.792 15.288C16.792 16.344 17.68 17.28 19.456 18.096C19.84 18.288 20.392 18.552 21.112 18.888C21.832 19.224 22.648 19.632 23.56 20.112C24.52 20.544 25.528 21.12 26.584 21.84C27.688 22.512 28.864 23.424 30.112 24.576C32.656 26.976 33.928 30.144 33.928 34.08C33.928 39.216 32.512 43.416 29.68 46.68C26.848 49.944 22.48 51.624 16.576 51.72C13.696 51.72 11.08 51.48 8.728 51C6.424 50.52 4.408 49.584 2.68 48.192C0.952 46.8 0.0880001 45.12 0.0880001 43.152C0.0880001 41.184 0.448 39.24 1.168 37.32C1.888 35.352 2.656 34.056 3.472 33.432ZM61.234 51.72C54.514 51.72 49.018 49.512 44.746 45.096C40.522 40.68 38.41 34.248 38.41 25.8C38.41 17.304 40.546 10.872 44.818 6.504C49.138 2.136 54.682 -0.0480037 61.45 -0.0480037C68.266 -0.0480037 73.762 2.112 77.938 6.432C82.114 10.704 84.202 17.208 84.202 25.944C84.202 34.632 82.066 41.112 77.794 45.384C73.522 49.608 68.002 51.72 61.234 51.72ZM61.306 13.776C59.002 13.776 57.058 14.832 55.474 16.944C53.938 19.056 53.17 22.032 53.17 25.872C53.17 29.664 53.914 32.592 55.402 34.656C56.89 36.672 58.834 37.68 61.234 37.68C63.682 37.68 65.65 36.648 67.138 34.584C68.674 32.52 69.442 29.568 69.442 25.728C69.442 21.888 68.65 18.936 67.066 16.872C65.53 14.808 63.61 13.776 61.306 13.776ZM91.8548 33.432C92.7668 34.152 94.3268 35.136 96.5348 36.384C98.7908 37.632 100.927 38.256 102.943 38.256C105.007 38.256 106.039 37.464 106.039 35.88C106.039 35.16 105.751 34.536 105.175 34.008C104.599 33.432 103.543 32.784 102.007 32.064C100.471 31.344 99.3188 30.792 98.5508 30.408C97.7828 29.976 96.7508 29.304 95.4548 28.392C94.2068 27.432 93.2468 26.448 92.5748 25.44C90.6548 22.704 89.6948 19.224 89.6948 15C89.6948 10.776 91.2548 7.224 94.3748 4.344C97.5428 1.416 101.671 -0.0480037 106.759 -0.0480037C110.215 -0.0480037 113.407 0.335997 116.335 1.104C119.263 1.824 120.775 2.784 120.871 3.984C120.871 4.128 120.871 4.272 120.871 4.416C120.871 6.096 120.343 8.232 119.287 10.824C118.231 13.368 117.487 14.784 117.055 15.072C113.983 13.488 111.223 12.696 108.775 12.696C106.375 12.696 105.175 13.56 105.175 15.288C105.175 16.344 106.063 17.28 107.839 18.096C108.223 18.288 108.775 18.552 109.495 18.888C110.215 19.224 111.031 19.632 111.943 20.112C112.903 20.544 113.911 21.12 114.967 21.84C116.071 22.512 117.247 23.424 118.495 24.576C121.039 26.976 122.311 30.144 122.311 34.08C122.311 39.216 120.895 43.416 118.063 46.68C115.231 49.944 110.863 51.624 104.959 51.72C102.079 51.72 99.4628 51.48 97.1108 51C94.8068 50.52 92.7908 49.584 91.0628 48.192C89.3348 46.8 88.4708 45.12 88.4708 43.152C88.4708 41.184 88.8308 39.24 89.5508 37.32C90.2708 35.352 91.0388 34.056 91.8548 33.432Z" fill="#D10000"/>
</svg>
