<svg width="56" height="24" viewBox="0 0 56 24" fill="none" xmlns="http://www.w3.org/2000/svg">
<path d="M2.432 15.692C2.83733 16.012 3.53067 16.4493 4.512 17.004C5.51467 17.5587 6.464 17.836 7.36 17.836C8.27733 17.836 8.736 17.484 8.736 16.78C8.736 16.46 8.608 16.1827 8.352 15.948C8.096 15.692 7.62667 15.404 6.944 15.084C6.26133 14.764 5.74933 14.5187 5.408 14.348C5.06667 14.156 4.608 13.8573 4.032 13.452C3.47733 13.0253 3.05067 12.588 2.752 12.14C1.89867 10.924 1.472 9.37733 1.472 7.5C1.472 5.62267 2.16533 4.044 3.552 2.764C4.96 1.46267 6.79467 0.811998 9.056 0.811998C10.592 0.811998 12.0107 0.982665 13.312 1.324C14.6133 1.644 15.2853 2.07067 15.328 2.604C15.328 2.668 15.328 2.732 15.328 2.796C15.328 3.54267 15.0933 4.492 14.624 5.644C14.1547 6.77467 13.824 7.404 13.632 7.532C12.2667 6.828 11.04 6.476 9.952 6.476C8.88533 6.476 8.352 6.86 8.352 7.628C8.352 8.09733 8.74667 8.51333 9.536 8.876C9.70667 8.96133 9.952 9.07867 10.272 9.228C10.592 9.37733 10.9547 9.55867 11.36 9.772C11.7867 9.964 12.2347 10.22 12.704 10.54C13.1947 10.8387 13.7173 11.244 14.272 11.756C15.4027 12.8227 15.968 14.2307 15.968 15.98C15.968 18.2627 15.3387 20.1293 14.08 21.58C12.8213 23.0307 10.88 23.7773 8.256 23.82C6.976 23.82 5.81333 23.7133 4.768 23.5C3.744 23.2867 2.848 22.8707 2.08 22.252C1.312 21.6333 0.928 20.8867 0.928 20.012C0.928 19.1373 1.088 18.2733 1.408 17.42C1.728 16.5453 2.06933 15.9693 2.432 15.692ZM28.104 23.82C25.1173 23.82 22.6747 22.8387 20.776 20.876C18.8987 18.9133 17.96 16.0547 17.96 12.3C17.96 8.524 18.9093 5.66533 20.808 3.724C22.728 1.78267 25.192 0.811998 28.2 0.811998C31.2293 0.811998 33.672 1.772 35.528 3.692C37.384 5.59067 38.312 8.48133 38.312 12.364C38.312 16.2253 37.3627 19.1053 35.464 21.004C33.5653 22.8813 31.112 23.82 28.104 23.82ZM28.136 6.956C27.112 6.956 26.248 7.42533 25.544 8.364C24.8613 9.30267 24.52 10.6253 24.52 12.332C24.52 14.0173 24.8507 15.3187 25.512 16.236C26.1733 17.132 27.0373 17.58 28.104 17.58C29.192 17.58 30.0667 17.1213 30.728 16.204C31.4107 15.2867 31.752 13.9747 31.752 12.268C31.752 10.5613 31.4 9.24933 30.696 8.332C30.0133 7.41467 29.16 6.956 28.136 6.956ZM41.7133 15.692C42.1186 16.012 42.8119 16.4493 43.7933 17.004C44.7959 17.5587 45.7453 17.836 46.6413 17.836C47.5586 17.836 48.0173 17.484 48.0173 16.78C48.0173 16.46 47.8893 16.1827 47.6333 15.948C47.3773 15.692 46.9079 15.404 46.2253 15.084C45.5426 14.764 45.0306 14.5187 44.6893 14.348C44.3479 14.156 43.8893 13.8573 43.3133 13.452C42.7586 13.0253 42.3319 12.588 42.0333 12.14C41.1799 10.924 40.7533 9.37733 40.7533 7.5C40.7533 5.62267 41.4466 4.044 42.8333 2.764C44.2413 1.46267 46.0759 0.811998 48.3373 0.811998C49.8733 0.811998 51.2919 0.982665 52.5933 1.324C53.8946 1.644 54.5666 2.07067 54.6093 2.604C54.6093 2.668 54.6093 2.732 54.6093 2.796C54.6093 3.54267 54.3746 4.492 53.9053 5.644C53.4359 6.77467 53.1053 7.404 52.9133 7.532C51.5479 6.828 50.3213 6.476 49.2333 6.476C48.1666 6.476 47.6333 6.86 47.6333 7.628C47.6333 8.09733 48.0279 8.51333 48.8173 8.876C48.9879 8.96133 49.2333 9.07867 49.5533 9.228C49.8733 9.37733 50.2359 9.55867 50.6413 9.772C51.0679 9.964 51.5159 10.22 51.9853 10.54C52.4759 10.8387 52.9986 11.244 53.5533 11.756C54.6839 12.8227 55.2493 14.2307 55.2493 15.98C55.2493 18.2627 54.6199 20.1293 53.3613 21.58C52.1026 23.0307 50.1613 23.7773 47.5373 23.82C46.2573 23.82 45.0946 23.7133 44.0493 23.5C43.0253 23.2867 42.1293 22.8707 41.3613 22.252C40.5933 21.6333 40.2093 20.8867 40.2093 20.012C40.2093 19.1373 40.3693 18.2733 40.6893 17.42C41.0093 16.5453 41.3506 15.9693 41.7133 15.692Z" fill="white"/>
</svg>
